<svg xmlns="http://www.w3.org/2000/svg" width="1.1in" height="1.2in" viewBox="0 0 81.5 82.9"><path d="M7.5 71.5V11.4a3.6 3.6 0 0 1 3.7-3.2h59a3.7 3.7 0 0 1 3.9 3.8v59a3.7 3.7 0 0 1-3.8 3.8H53.5V49.1h8.6L63.5 39h-10v-6.1a17.1 17.1 0 0 1 .1-1.9 3.3 3.3 0 0 1 2.7-3l2.2-.3h5.3v-8.8c0-.2 0-.3-.2-.4h-1.4l-6.3-.2a13.8 13.8 0 0 0-3.6.4 11.1 11.1 0 0 0-7.8 5.9 14.1 14.1 0 0 0-1.5 6.2v8.1h-8.6v10.2H43v25.8H11.2A3.7 3.7 0 0 1 7.6 72z"/><path fill="#fff" d="M7.5 71.5v.5a3.7 3.7 0 0 0 3.6 2.9H43V49.1h-8.6V39h8.7v-8.1a14.1 14.1 0 0 1 1.5-6.2 11.1 11.1 0 0 1 7.8-5.9 13.8 13.8 0 0 1 3.6-.4l6.3.2h1.3c.3 0 .2.2.2.4v8.8h-5.3l-2.2.3a3.3 3.3 0 0 0-2.7 3 17.1 17.1 0 0 0-.1 1.9v6h9.9l-1.2 10.1h-8.7v25.8h16.8a3.7 3.7 0 0 0 3.8-3.8v-59a3.7 3.7 0 0 0-3.8-3.8h-59a3.6 3.6 0 0 0-3.7 3.2V8.2h66.6v66.7H7.5z"/></svg>