<svg xmlns="http://www.w3.org/2000/svg"><symbol id="behance" viewBox="0 0 142 107"><path d="M11.8 19.2h34a32.4 32.4 0 0 1 11 1.6c5 1.8 8.8 5 10.6 10.2a19.4 19.4 0 0 1-.8 15.2 13.1 13.1 0 0 1-5.6 5.5l-1.3.8 3 1.5a15.2 15.2 0 0 1 7.4 10.6A21.9 21.9 0 0 1 68.5 79a19.5 19.5 0 0 1-11.7 10.5A33.8 33.8 0 0 1 46.3 91H11.8zm16.6 59.3h.3c6.2-.1 12.4 0 18.6-.2a8.1 8.1 0 0 0 6-2.8c2.2-2.6 2.5-5.6 2.1-8.8a6.9 6.9 0 0 0-4.3-6 13.5 13.5 0 0 0-4.7-1.2c-5.7-.2-11.4-.1-17.1-.2-.9 0-1 .3-1 1.1v17.2c.1.3.1.6.1.9zm.1-46.8c0 .4-.1.7-.1.9v13.9c0 .8.2 1 1 1h14a24.8 24.8 0 0 0 4.7-.6 7.2 7.2 0 0 0 4.5-2.6 8.6 8.6 0 0 0 1.4-6.5c-.4-2.7-1.8-4.6-4.6-5.2a36.7 36.7 0 0 0-5.9-.8c-3.6-.1-7.1-.1-10.7-.1zM127.4 67H89.8c.1.9.1 1.7.3 2.5.8 4.8 3.3 8.2 8 9.6a13.9 13.9 0 0 0 10.6-.7 8 8 0 0 0 3.5-3.4 1.8 1.8 0 0 1 1.9-1.1h12.5a13.2 13.2 0 0 1-2.5 6.3 22.7 22.7 0 0 1-14.3 9.7 30.5 30.5 0 0 1-18.4-1.2c-7.5-3-12.6-8.2-14.2-16.4a40.4 40.4 0 0 1 .6-19.3 22.2 22.2 0 0 1 8.5-12.1c5-3.6 10.7-4.9 16.7-4.7a26.4 26.4 0 0 1 13.5 3.8 22.4 22.4 0 0 1 8 9.1 28 28 0 0 1 2.7 10.8 8.8 8.8 0 0 0 .2 1zm-14.1-9c-.2-4.1-1.7-7.5-5.4-9.4a12.3 12.3 0 0 0-12.6.2c-3.3 2-4.5 5.4-5.2 9.2zm2.8-35.7v7H87.3v-7z"/></symbol><symbol id="facebook" viewBox="0 0 81.5 82.9"><path d="M7.5 71.5V11.4a3.6 3.6 0 0 1 3.7-3.2h59a3.7 3.7 0 0 1 3.9 3.8v59a3.7 3.7 0 0 1-3.8 3.8H53.5V49.1h8.6L63.5 39h-10v-6.1a17.1 17.1 0 0 1 .1-1.9 3.3 3.3 0 0 1 2.7-3l2.2-.3h5.3v-8.8c0-.2 0-.3-.2-.4h-1.4l-6.3-.2a13.8 13.8 0 0 0-3.6.4 11.1 11.1 0 0 0-7.8 5.9 14.1 14.1 0 0 0-1.5 6.2v8.1h-8.6v10.2H43v25.8H11.2A3.7 3.7 0 0 1 7.6 72z"/><path fill="#fff" d="M7.5 71.5v.5a3.7 3.7 0 0 0 3.6 2.9H43V49.1h-8.6V39h8.7v-8.1a14.1 14.1 0 0 1 1.5-6.2 11.1 11.1 0 0 1 7.8-5.9 13.8 13.8 0 0 1 3.6-.4l6.3.2h1.3c.3 0 .2.2.2.4v8.8h-5.3l-2.2.3a3.3 3.3 0 0 0-2.7 3 17.1 17.1 0 0 0-.1 1.9v6h9.9l-1.2 10.1h-8.7v25.8h16.8a3.7 3.7 0 0 0 3.8-3.8v-59a3.7 3.7 0 0 0-3.8-3.8h-59a3.6 3.6 0 0 0-3.7 3.2V8.2h66.6v66.7H7.5z"/></symbol><symbol id="insta" viewBox="0 0 95.6 88.1"><path d="M47.2 14.5c9.6 0 10.8 0 14.5.2a19.9 19.9 0 0 1 6.8 1.3 11.9 11.9 0 0 1 6.8 6.8 19.9 19.9 0 0 1 1.2 6.7c.2 3.8.2 4.9.2 14.5s0 10.8-.2 14.5a19.9 19.9 0 0 1-1.2 6.7 11.9 11.9 0 0 1-6.8 6.8 19.9 19.9 0 0 1-6.7 1.2c-3.8.2-4.9.2-14.5.2s-10.8 0-14.5-.2a19.9 19.9 0 0 1-6.8-1.1 11.9 11.9 0 0 1-6.8-6.8 19.9 19.9 0 0 1-1.2-6.7c-.2-3.8-.2-4.9-.2-14.5s0-10.8.2-14.5a19.9 19.9 0 0 1 1.2-6.7A11.9 11.9 0 0 1 26 16a19.9 19.9 0 0 1 6.7-1.2c3.8-.2 4.9-.2 14.5-.2m0-6.5c-9.8 0-11 0-14.8.2a26.4 26.4 0 0 0-8.7 1.7 18.4 18.4 0 0 0-10.6 10.5 26.4 26.4 0 0 0-1.7 8.7c-.2 3.8-.2 5.1-.2 14.8s0 11 .2 14.8a26.4 26.4 0 0 0 1.7 8.7 18.4 18.4 0 0 0 10.6 10.6 26.4 26.4 0 0 0 8.7 1.7c3.8.2 5.1.2 14.8.2s11 0 14.8-.2a26.4 26.4 0 0 0 8.7-1.7 18.4 18.4 0 0 0 10.7-10.5 26.4 26.4 0 0 0 1.6-8.7c.2-3.8.2-5.1.2-14.8s0-11-.2-14.8a26.4 26.4 0 0 0-1.7-8.7A18.4 18.4 0 0 0 70.8 9.9a26.4 26.4 0 0 0-8.7-1.7C58.2 8.1 57 8 47.2 8z"/><path d="M47.2 25.5A18.5 18.5 0 1 0 65.7 44a18.5 18.5 0 0 0-18.5-18.5zm0 30.5a12 12 0 1 1 12-12 12 12 0 0 1-12 12z"/><circle cx="66.5" cy="24.8" r="4.3"/></symbol></svg>